<svg xmlns="http://www.w3.org/2000/svg" width="15.802" height="21.423" viewBox="0 0 15.802 21.423">
  <g id="Group_9740" data-name="Group 9740" transform="translate(-288.596 -713.786)">
    <path id="delete" d="M14.845,4.017H1.018A.855.855,0,0,1,.324,3.63a1.514,1.514,0,0,1-.293-.941,1.589,1.589,0,0,1,.286-.952.841.841,0,0,1,.7-.4H5.957A1.57,1.57,0,0,1,6.243.4a.843.843,0,0,1,.7-.4H8.92a.843.843,0,0,1,.7.4,1.57,1.57,0,0,1,.286.941h4.938a.85.85,0,0,1,.694.4,1.559,1.559,0,0,1,.293.952,1.513,1.513,0,0,1-.293.941.857.857,0,0,1-.694.387Zm0,14.729a3.1,3.1,0,0,1-.579,1.894,1.7,1.7,0,0,1-1.4.785H2.993a1.7,1.7,0,0,1-1.4-.785,3.1,3.1,0,0,1-.579-1.894V5.356H14.845v13.39ZM4.969,9.373a1.542,1.542,0,0,0-.293-.941.856.856,0,0,0-.7-.4.836.836,0,0,0-.694.4,1.574,1.574,0,0,0-.286.941v8.034a1.559,1.559,0,0,0,.286.952.842.842,0,0,0,.694.387.862.862,0,0,0,.7-.387,1.528,1.528,0,0,0,.293-.952V9.373Zm3.951,0a1.542,1.542,0,0,0-.293-.941.856.856,0,0,0-.7-.4.836.836,0,0,0-.694.4,1.574,1.574,0,0,0-.286.941v8.034a1.559,1.559,0,0,0,.286.952.842.842,0,0,0,.694.387.862.862,0,0,0,.7-.387,1.528,1.528,0,0,0,.293-.952V9.373Zm3.951,0a1.542,1.542,0,0,0-.293-.941.856.856,0,0,0-.7-.4.836.836,0,0,0-.694.4,1.574,1.574,0,0,0-.286.941v8.034a1.559,1.559,0,0,0,.286.952.842.842,0,0,0,.694.387.862.862,0,0,0,.7-.387,1.528,1.528,0,0,0,.293-.952V9.373Z" transform="translate(288.565 713.785)" fill="#e53333"/>
  </g>
</svg>
