<svg id="Group_5098" data-name="Group 5098" xmlns="http://www.w3.org/2000/svg" xmlns:xlink="http://www.w3.org/1999/xlink" width="20" height="14.743" viewBox="0 0 20 14.743">
  <defs>
    <clipPath id="clip-path">
      <rect id="Rectangle_2882" data-name="Rectangle 2882" width="20" height="14.743" fill="#68482a"/>
    </clipPath>
  </defs>
  <g id="Group_5097" data-name="Group 5097" clip-path="url(#clip-path)">
    <path id="Path_7354" data-name="Path 7354" d="M0,72.275Q1.908,73.436,3.817,74.6q2.732,1.667,5.461,3.339a1.246,1.246,0,0,0,1.425,0q4.527-2.77,9.064-5.526c.066-.04.133-.079.234-.138V72.5q0,3.643,0,7.286a2.955,2.955,0,0,1-3.084,3.066q-6.4,0-12.793,0a11.424,11.424,0,0,1-1.694-.063A2.886,2.886,0,0,1,.038,80.351.586.586,0,0,0,0,80.245v-7.97" transform="translate(0 -68.107)" fill="#68482a"/>
    <path id="Path_7355" data-name="Path 7355" d="M12.008,0H18.94A2.887,2.887,0,0,1,21.5,1.346a5.9,5.9,0,0,1,.361.774c.069.149.014.225-.122.308Q18,4.7,14.278,6.982c-.7.431-1.411.858-2.113,1.295a.239.239,0,0,1-.3,0Q7.066,5.34,2.257,2.416a.207.207,0,0,1-.111-.28A2.95,2.95,0,0,1,5.075,0q3.466,0,6.932,0" transform="translate(-2.007 0)" fill="#68482a"/>
  </g>
</svg>
