<svg xmlns="http://www.w3.org/2000/svg" width="19.12" height="17.991" viewBox="0 0 19.12 17.991">
  <g id="Icon_feather-eye-off" data-name="Icon feather-eye-off" transform="translate(1.06 1.06)">
    <path id="Path_245" data-name="Path 245" d="M14.59,14.979A8.821,8.821,0,0,1,10,16.306c-5.409,0-8.5-5.153-8.5-5.153A12.773,12.773,0,0,1,5.41,7.327M8.377,6.155A8.4,8.4,0,0,1,10,6c5.409,0,8.5,5.153,8.5,5.153a12.062,12.062,0,0,1-1.669,2.055m-5.193-.689a2.629,2.629,0,0,1-2.27.555A2.16,2.16,0,0,1,7.7,11.679a1.735,1.735,0,0,1,.666-1.892" transform="translate(-1.5 -3.218)" fill="none" stroke="#68482a" stroke-linecap="round" stroke-linejoin="round" stroke-width="1.5"/>
    <path id="Path_246" data-name="Path 246" d="M1.5,1.5l17,15.871" transform="translate(-1.5 -1.5)" fill="none" stroke="#68482a" stroke-linecap="round" stroke-linejoin="round" stroke-width="1.5"/>
  </g>
</svg>
