<svg xmlns="http://www.w3.org/2000/svg" xmlns:xlink="http://www.w3.org/1999/xlink" width="23.301" height="28" viewBox="0 0 23.301 28">
  <defs>
    <clipPath id="clip-path">
      <rect id="Rectangle_5483" data-name="Rectangle 5483" width="23.301" height="28" fill="#fff"/>
    </clipPath>
  </defs>
  <g id="Group_9522" data-name="Group 9522" clip-path="url(#clip-path)">
    <path id="Path_29861" data-name="Path 29861" d="M4.309,212.458c-.317-.066-.64-.114-.951-.2a4.379,4.379,0,0,1-3.339-4.2,14.966,14.966,0,0,1,.967-6.323,5.8,5.8,0,0,1,2.59-3.131A5.093,5.093,0,0,1,6.118,198a1.954,1.954,0,0,1,.835.288c.414.226.8.506,1.2.755a6.2,6.2,0,0,0,7.013-.005c.324-.2.655-.4.96-.624a2.322,2.322,0,0,1,1.838-.374,5.178,5.178,0,0,1,3.957,2.849,11.717,11.717,0,0,1,1.272,4.541,22.585,22.585,0,0,1,.107,2.454,4.475,4.475,0,0,1-4.128,4.528,1.056,1.056,0,0,0-.177.051Z" transform="translate(0 -184.458)" fill="#fff"/>
    <path id="Path_29862" data-name="Path 29862" d="M76.833,0c.363.073.729.135,1.089.22A6.788,6.788,0,0,1,82.846,5.7a6.557,6.557,0,0,1-.962,4.651,6.587,6.587,0,0,1-5.259,3.117A6.753,6.753,0,0,1,70.04,9.5a6.836,6.836,0,0,1,1.022-7.121A6.689,6.689,0,0,1,74.8.139c.257-.052.516-.093.774-.139Z" transform="translate(-64.717)" fill="#fff"/>
  </g>
</svg>
