<svg id="Group_5095" data-name="Group 5095" xmlns="http://www.w3.org/2000/svg" xmlns:xlink="http://www.w3.org/1999/xlink" width="16" height="15.999" viewBox="0 0 16 15.999">
  <defs>
    <clipPath id="clip-path">
      <rect id="Rectangle_2880" data-name="Rectangle 2880" width="16" height="15.999" fill="#68482a"/>
    </clipPath>
  </defs>
  <g id="Group_5095-2" data-name="Group 5095" clip-path="url(#clip-path)">
    <path id="Path_7351" data-name="Path 7351" d="M0,5.5c.06.327.094.66.183.979A4.982,4.982,0,0,0,3.042,9.843a4.945,4.945,0,0,0,3.5.218.236.236,0,0,1,.273.067c.339.346.69.68,1.031,1.023a.605.605,0,0,0,.474.193c.249-.008.5,0,.77,0,0,.261,0,.514,0,.767,0,.43.213.612.644.556.19-.025.381-.042.59-.064.026.265.051.522.076.778.007.072.011.146.025.217a.45.45,0,0,0,.427.407c.314.04.631.065.97.1-.021.2-.032.393-.065.584a.606.606,0,0,0,.2.59c.191.177.371.366.553.551a.556.556,0,0,0,.419.172c.849,0,1.7,0,2.546,0a.474.474,0,0,0,.52-.525c0-.833,0-1.666,0-2.5a.655.655,0,0,0-.209-.5q-1.886-1.88-3.767-3.765-.933-.933-1.868-1.865A.216.216,0,0,1,10.09,6.6,5.034,5.034,0,0,0,8.854,1.575,4.9,4.9,0,0,0,5.9.06L5.5,0H4.812a.392.392,0,0,1-.074.021,5.065,5.065,0,0,0-3.16,1.425A4.907,4.907,0,0,0,.188,3.8C.1,4.134.062,4.476,0,4.812Zm3.85-.272A1.4,1.4,0,1,1,5.228,3.81,1.4,1.4,0,0,1,3.85,5.227" transform="translate(0)" fill="#68482a"/>
  </g>
</svg>
