<svg xmlns="http://www.w3.org/2000/svg" xmlns:xlink="http://www.w3.org/1999/xlink" width="11.6" height="11.599" viewBox="0 0 11.6 11.599">
  <defs>
    <clipPath id="clip-path">
      <rect id="Rectangle_5481" data-name="Rectangle 5481" width="11.6" height="11.599" fill="#68482a"/>
    </clipPath>
  </defs>
  <g id="phoneicon" transform="translate(-0.127 1.11)">
    <g id="Group_9518" data-name="Group 9518" transform="translate(0.127 -1.11)" clip-path="url(#clip-path)">
      <path id="Path_29853" data-name="Path 29853" d="M3.172,0A2.415,2.415,0,0,1,3.6.184.861.861,0,0,1,3.987.9a7.5,7.5,0,0,0,.181,1.537c.05.2.112.407.164.611a.936.936,0,0,1-.194.848c-.327.42-.645.847-.963,1.273a.123.123,0,0,0,0,.108A7.108,7.108,0,0,0,5.979,8.235c.111.064.221.131.335.188a.135.135,0,0,0,.117-.006c.427-.318.854-.636,1.274-.962a.943.943,0,0,1,.83-.185c.3.07.6.174.911.222.394.062.794.094,1.192.118a.943.943,0,0,1,.923.695,1.1,1.1,0,0,1,.037.29q0,1.014,0,2.027a.935.935,0,0,1-.987.976A10.52,10.52,0,0,1,4.72,9.779a10.581,10.581,0,0,1-3.834-4.6,10.165,10.165,0,0,1-.8-2.912c-.035-.3-.06-.591-.089-.887V.816A3.075,3.075,0,0,1,.2.371.924.924,0,0,1,.816,0H3.172" fill="#68482a"/>
    </g>
  </g>
</svg>
