<svg id="usericon" xmlns="http://www.w3.org/2000/svg" xmlns:xlink="http://www.w3.org/1999/xlink" width="12.269" height="14.743" viewBox="0 0 12.269 14.743">
  <defs>
    <clipPath id="clip-path">
      <rect id="Rectangle_5483" data-name="Rectangle 5483" width="12.269" height="14.743" fill="#68482a"/>
    </clipPath>
  </defs>
  <g id="Group_9522" data-name="Group 9522" clip-path="url(#clip-path)">
    <path id="Path_29861" data-name="Path 29861" d="M2.269,205.61c-.167-.035-.337-.06-.5-.106A2.306,2.306,0,0,1,.01,203.294a7.88,7.88,0,0,1,.509-3.329,3.056,3.056,0,0,1,1.364-1.648,2.682,2.682,0,0,1,1.339-.322,1.029,1.029,0,0,1,.44.152c.218.119.42.266.632.4a3.266,3.266,0,0,0,3.692,0c.171-.106.345-.208.506-.329a1.222,1.222,0,0,1,.968-.2,2.726,2.726,0,0,1,2.083,1.5,6.17,6.17,0,0,1,.67,2.391,11.892,11.892,0,0,1,.056,1.292,2.356,2.356,0,0,1-2.174,2.384.556.556,0,0,0-.093.027Z" transform="translate(0 -190.867)" fill="#68482a"/>
    <path id="Path_29862" data-name="Path 29862" d="M73.345,0c.191.038.384.071.574.116A3.574,3.574,0,0,1,76.511,3,3.452,3.452,0,0,1,76,5.45a3.468,3.468,0,0,1-2.769,1.641A3.556,3.556,0,0,1,69.768,5a3.6,3.6,0,0,1,.538-3.75A3.522,3.522,0,0,1,72.276.073c.135-.028.272-.049.408-.073Z" transform="translate(-66.966)" fill="#68482a"/>
  </g>
</svg>
