<svg id="zipcodeicon" xmlns="http://www.w3.org/2000/svg" xmlns:xlink="http://www.w3.org/1999/xlink" width="20.957" height="15.998" viewBox="0 0 20.957 15.998">
  <defs>
    <clipPath id="clip-path">
      <rect id="Rectangle_5482" data-name="Rectangle 5482" width="20.957" height="15.998" fill="#68482a"/>
    </clipPath>
  </defs>
  <g id="Group_9520" data-name="Group 9520" clip-path="url(#clip-path)">
    <path id="Path_29854" data-name="Path 29854" d="M6.28,96.248c0,.595,0,1.171,0,1.747,0,.481.332.687.763.477a3.666,3.666,0,0,0,.526-.268.649.649,0,0,1,.8,0c.26.16.545.279.817.42a.578.578,0,0,0,.565,0c.357-.183.715-.365,1.077-.538a.43.43,0,0,1,.245-.034.474.474,0,0,0,.6-.481c.006-.437,0-.874,0-1.326h6.265v2.432a4.275,4.275,0,0,0-3.114.685,4.183,4.183,0,0,0-1.605,2.054,4.3,4.3,0,0,0,1.672,5.058c-.085.005-.146.013-.206.013H1.076A.983.983,0,0,1,0,105.438q0-4.5,0-9.006c0-.057.006-.114.009-.184Zm1.356,7.433c.334,0,.64.007.946,0a1.486,1.486,0,1,0-.026-2.971c-.351,0-.7,0-1.052,0-.324,0-.393.071-.393.4q0,2.071,0,4.141c0,.058-.02.134.008.172.065.085.151.2.235.21s.193-.1.261-.176c.038-.044.02-.14.021-.212,0-.51,0-1.021,0-1.564m-2.967-2.447c-.058.1-.1.168-.137.235Q3.46,103.187,2.387,104.9a.451.451,0,0,0,.412.749c.694,0,1.388,0,2.082,0a.7.7,0,0,0,.153-.007c.146-.033.256-.134.217-.276a.461.461,0,0,0-.239-.232.692.692,0,0,0-.281-.009H2.885c.056-.1.091-.166.132-.232q.543-.874,1.088-1.747c.363-.582.73-1.162,1.088-1.747a.422.422,0,0,0-.324-.689c-.789-.014-1.578-.007-2.367,0a.24.24,0,0,0-.262.261.244.244,0,0,0,.263.26c.058,0,.117,0,.175,0H4.669m1.788,1.942c0-.715,0-1.43,0-2.146,0-.179-.068-.31-.256-.315s-.271.12-.271.3q0,2.168,0,4.335a.269.269,0,0,0,.214.291c.175.044.311-.094.312-.32,0-.715,0-1.43,0-2.146" transform="translate(0 -90.624)" fill="#68482a"/>
    <path id="Path_29855" data-name="Path 29855" d="M234.36,153.337a3.738,3.738,0,1,1,3.731-3.742,3.747,3.747,0,0,1-3.731,3.742m-.266-3.115a1.967,1.967,0,0,0,2.7-.332,1.946,1.946,0,0,0-2.661-2.793,1.98,1.98,0,0,0-.414,2.766l-1.607,1.6c-.072.072-.15.14-.214.219a.244.244,0,0,0,.007.355.247.247,0,0,0,.355.017,1.387,1.387,0,0,0,.142-.137l1.691-1.694" transform="translate(-217.134 -137.339)" fill="#68482a"/>
    <path id="Path_29856" data-name="Path 29856" d="M8.988,0,8.465,5.073H2.293c.028-.081.049-.149.075-.215Q3.173,2.8,3.98.747A1.019,1.019,0,0,1,5.083,0H8.988Z" transform="translate(-2.159 -0.002)" fill="#68482a"/>
    <path id="Path_29857" data-name="Path 29857" d="M190.4,0h3.918A1.012,1.012,0,0,1,195.4.737q.812,2.065,1.62,4.131c.023.06.043.121.071.2h-6.172L190.4,0" transform="translate(-179.27 0)" fill="#68482a"/>
    <path id="Path_29858" data-name="Path 29858" d="M116.966,5.214,117.49.15h3.238l.523,5.064Z" transform="translate(-110.131 -0.141)" fill="#68482a"/>
    <path id="Path_29859" data-name="Path 29859" d="M116.713,96.1h4.314v1.2c-.212.073-.412.126-.6.21-.3.139-.6.291-.9.451a.321.321,0,0,1-.344,0c-.341-.181-.691-.346-1.034-.523a.6.6,0,0,0-.6.005c-.268.144-.544.272-.837.418Z" transform="translate(-109.893 -90.484)" fill="#68482a"/>
    <path id="Path_29860" data-name="Path 29860" d="M130.791,183.2v-1.931a9.549,9.549,0,0,1,1.233.073.9.9,0,0,1,.667.978.923.923,0,0,1-.855.874c-.339.029-.682.006-1.045.006" transform="translate(-123.148 -170.681)" fill="#68482a"/>
  </g>
</svg>
